
<svg  width="24" height="20" viewBox="0 0 24 20" fill="none" xmlns="http://www.w3.org/2000/svg">
<path   d="M4.125 0.25C4.74844 0.25 5.25 0.753906 5.25 1.375V3.625C5.25 4.24844 4.74844 4.75 4.125 4.75H1.875C1.25391 4.75 0.75 4.24844 0.75 3.625V1.375C0.75 0.753906 1.25391 0.25 1.875 0.25H4.125ZM22.5 1C23.3297 1 24 1.67172 24 2.5C24 3.32969 23.3297 4 22.5 4H9C8.17031 4 7.5 3.32969 7.5 2.5C7.5 1.67172 8.17031 1 9 1H22.5ZM22.5 8.5C23.3297 8.5 24 9.17031 24 10C24 10.8297 23.3297 11.5 22.5 11.5H9C8.17031 11.5 7.5 10.8297 7.5 10C7.5 9.17031 8.17031 8.5 9 8.5H22.5ZM22.5 16C23.3297 16 24 16.6703 24 17.5C24 18.3297 23.3297 19 22.5 19H9C8.17031 19 7.5 18.3297 7.5 17.5C7.5 16.6703 8.17031 16 9 16H22.5ZM0.75 8.875C0.75 8.25156 1.25391 7.75 1.875 7.75H4.125C4.74844 7.75 5.25 8.25156 5.25 8.875V11.125C5.25 11.7484 4.74844 12.25 4.125 12.25H1.875C1.25391 12.25 0.75 11.7484 0.75 11.125V8.875ZM4.125 15.25C4.74844 15.25 5.25 15.7516 5.25 16.375V18.625C5.25 19.2484 4.74844 19.75 4.125 19.75H1.875C1.25391 19.75 0.75 19.2484 0.75 18.625V16.375C0.75 15.7516 1.25391 15.25 1.875 15.25H4.125Z" fill="#CDCDCD"/>
</svg>
