<svg width="27" height="24" viewBox="0 0 27 24" fill="none" xmlns="http://www.w3.org/2000/svg">
<path d="M26.9744 11.9766C26.9744 12.8203 26.2717 13.4813 25.4753 13.4813H23.9762L24.009 20.9859C24.009 21.1172 23.9996 21.2391 23.9856 21.3656V22.125C23.9856 23.1609 23.147 24 22.1117 24H21.3622C21.3106 24 21.2591 23.9578 21.2076 23.9953C21.142 23.9578 21.0764 24 21.0108 24H18.364C17.3286 24 16.4901 23.1609 16.4901 22.125V18C16.4901 17.1703 15.8202 16.5 14.991 16.5H11.9928C11.1636 16.5 10.4937 17.1703 10.4937 18V22.125C10.4937 23.1609 9.65514 24 8.61982 24H6.00108C5.93081 24 5.86054 23.9953 5.79027 23.9906C5.73405 23.9953 5.67784 24 5.62162 24H4.87207C3.83723 24 2.9982 23.1609 2.9982 22.125V16.875C2.9982 16.8328 2.9996 16.7859 3.00241 16.7438V13.4813H1.50144C0.656793 13.4813 0 12.8203 0 11.9766C0 11.5547 0.140728 11.1797 0.468937 10.8516L12.48 0.37575C12.8079 0.0469687 13.1827 0 13.5106 0C13.8386 0 14.2133 0.0939375 14.4991 0.328781L26.4591 10.8516C26.8339 11.1797 27.0259 11.5547 26.9744 11.9766Z" fill="#CDCDCD"/>
</svg>
