<svg width="24" height="24" viewBox="0 0 24 24" fill="none" xmlns="http://www.w3.org/2000/svg">
<path d="M23.2454 7.80938C23.4001 8.2125 23.2688 8.66719 22.9501 8.9625L20.9204 10.8094C20.9719 11.1984 21.0001 11.5969 21.0001 12C21.0001 12.4031 20.9719 12.8016 20.9204 13.1906L22.9501 15.0375C23.2688 15.3328 23.4001 15.7875 23.2454 16.1906C23.0391 16.7484 22.7907 17.2875 22.5094 17.7984L22.2891 18.1781C21.9797 18.6937 21.6329 19.1812 21.2532 19.6453C20.9719 19.9781 20.5172 20.0953 20.1047 19.9641L17.4938 19.1297C16.8657 19.6125 16.1297 20.0156 15.4313 20.325L14.8454 23.0016C14.7516 23.4234 14.4235 23.7234 13.9922 23.8359C13.3454 23.9438 12.6797 24 11.9579 24C11.3204 24 10.6547 23.9438 10.0079 23.8359C9.57662 23.7234 9.24849 23.4234 9.15474 23.0016L8.56881 20.325C7.82818 20.0156 7.13443 19.6125 6.50631 19.1297L3.89724 19.9641C3.48287 20.0953 3.02584 19.9781 2.74834 19.6453C2.36818 19.1812 2.02131 18.6937 1.71193 18.1781L1.49256 17.7984C1.20803 17.2875 0.960525 16.7484 0.752869 16.1906C0.600994 15.7875 0.728963 15.3328 1.05053 15.0375L3.07834 13.1906C3.02678 12.8016 3.00006 12.4031 3.00006 12C3.00006 11.5969 3.02678 11.1984 3.07834 10.8094L1.05053 8.9625C0.728963 8.66719 0.600994 8.21719 0.752869 7.80938C0.960525 7.25156 1.20849 6.7125 1.49256 6.20156L1.71146 5.82187C2.02131 5.30625 2.36818 4.81875 2.74834 4.35703C3.02584 4.02187 3.48287 3.90562 3.89724 4.03781L6.50631 4.87031C7.13443 4.38562 7.82818 3.9825 8.56881 3.67641L9.15474 0.999844C9.24849 0.574219 9.57662 0.23625 10.0079 0.164531C10.6547 0.0562969 11.3204 0 12.0001 0C12.6797 0 13.3454 0.0562969 13.9922 0.164531C14.4235 0.23625 14.7516 0.574219 14.8454 0.999844L15.4313 3.67641C16.1297 3.9825 16.8657 4.38562 17.4938 4.87031L20.1047 4.03781C20.5172 3.90562 20.9719 4.02187 21.2532 4.35703C21.6329 4.81875 21.9797 5.30625 22.2891 5.82187L22.5094 6.20156C22.7907 6.7125 23.0391 7.25156 23.2454 7.80938ZM12.0001 15.75C14.0719 15.75 15.7501 14.0719 15.7501 11.9578C15.7501 9.92813 14.0719 8.20781 12.0001 8.20781C9.92818 8.20781 8.25006 9.92813 8.25006 11.9578C8.25006 14.0719 9.92818 15.75 12.0001 15.75Z" fill="#CDCDCD"/>
</svg>
