<?xml version="1.0" encoding="UTF-8"?>
<!DOCTYPE svg PUBLIC "-//W3C//DTD SVG 1.1//EN" "http://www.w3.org/Graphics/SVG/1.1/DTD/svg11.dtd">
<!-- Creator: CorelDRAW 2021.5 -->
<svg xmlns="http://www.w3.org/2000/svg" xml:space="preserve" width="46px" height="15px" version="1.1" shape-rendering="geometricPrecision" text-rendering="geometricPrecision" image-rendering="optimizeQuality" fill-rule="evenodd" clip-rule="evenodd"
viewBox="0 0 0.46 0.15"
 xmlns:xlink="http://www.w3.org/1999/xlink"
 xmlns:xodm="http://www.corel.com/coreldraw/odm/2003">
 <g id="Camada_x0020_1">
  <metadata id="CorelCorpID_0Corel-Layer"/>
  <path fill="white" d="M0.13 0.02c0,0 0,0 0,0.01l-0.05 0.08 0 -0.1 -0.08 0 0.03 0.01c0,0 0.01,0.01 0.01,0.02l0 0.11 0.04 0 0.09 -0.14 -0.04 0c0,0 0,0 0,0.01z"/>
  <path fill="white" d="M0.44 0.01l0 0 -0.04 0c0,0 0,0 0,0 0,0 0,0 0,0.01l-0.07 0.12c0,0 0,0 -0.01,0.01l0.04 0 0 -0.01c0,0 0,-0.01 0.01,-0.02l0 -0.01 0.04 0c0.01,0.01 0.01,0.02 0.01,0.03l-0.01 0.01 0.05 0 -0.01 -0.01 -0.01 -0.13zm-0.03 0.08l-0.03 0 0.03 -0.05 0 0.05z"/>
  <path fill="white" d="M0.29 0c-0.01,0 -0.02,0 -0.04,0.01 -0.01,0.01 -0.01,0.02 -0.01,0.03 0,0.01 0,0.02 0.01,0.03l0.03 0.02c0.01,0.01 0.01,0.01 0.01,0.02 0,0 0,0.01 -0.01,0.01 0,0.01 -0.01,0.01 -0.01,0.01 -0.01,0 -0.03,-0.01 -0.05,-0.02l0 0.02c0.02,0.01 0.03,0.02 0.05,0.02 0.02,0 0.03,0 0.04,-0.01 0.01,-0.01 0.02,-0.02 0.02,-0.04 0,-0.01 -0.01,-0.01 -0.02,-0.02l-0.02 -0.02c-0.01,-0.01 -0.01,-0.02 -0.01,-0.02 0,-0.01 0,-0.02 0.02,-0.02 0,0 0.02,0.01 0.03,0.02l0.01 -0.03c-0.01,-0.01 -0.03,-0.01 -0.05,-0.01z"/>
  <path fill="white" d="M0.19 0.15c0,-0.01 0,-0.01 0,-0.02l0.03 -0.11 0.01 -0.01 -0.05 0c0,0 0,0 0,0.01 0,0 0,0 0,0l-0.03 0.12 -0.01 0.01 0.05 0z"/>
 </g>
</svg>
