<svg width="24" height="22" viewBox="0 0 24 22" fill="none" xmlns="http://www.w3.org/2000/svg">
<path d="M21 0.5C21.8297 0.5 22.5 1.17172 22.5 2C22.5 2.82828 21.8297 3.5 21 3.5H3.75C3.33562 3.5 3 3.8375 3 4.25C3 4.6625 3.33562 5 3.75 5H21C22.6547 5 24 6.34531 24 8V18.5C24 20.1547 22.6547 21.5 21 21.5H3C1.34297 21.5 0 20.1547 0 18.5V3.5C0 1.84297 1.34297 0.5 3 0.5H21ZM19.5 14.75C20.3297 14.75 21 14.0797 21 13.25C21 12.4203 20.3297 11.75 19.5 11.75C18.6703 11.75 18 12.4203 18 13.25C18 14.0797 18.6703 14.75 19.5 14.75Z" fill="#CDCDCD"/>
</svg>
