<?xml version="1.0" encoding="UTF-8"?>
<!DOCTYPE svg PUBLIC "-//W3C//DTD SVG 1.1//EN" "http://www.w3.org/Graphics/SVG/1.1/DTD/svg11.dtd">
<!-- Creator: CorelDRAW 2021.5 -->
<svg xmlns="http://www.w3.org/2000/svg" xml:space="preserve" width="87px" height="87px" version="1.1" shape-rendering="geometricPrecision" text-rendering="geometricPrecision" image-rendering="optimizeQuality" fill-rule="evenodd" clip-rule="evenodd"
viewBox="0 0 87 87"
 xmlns:xlink="http://www.w3.org/1999/xlink"
 xmlns:xodm="http://www.corel.com/coreldraw/odm/2003">
 <g id="Camada_x0020_1">
  <metadata id="CorelCorpID_0Corel-Layer"/>
  <rect fill="#FEFEFE" x="3.76" y="5.1" width="79.48" height="76.8"/>
  <path fill="#3A8BEB" d="M9.6 0l67.8 0c5.28,0 9.6,4.32 9.6,9.6l0 67.8c0,5.28 -4.32,9.6 -9.6,9.6l-67.8 0c-5.28,0 -9.6,-4.32 -9.6,-9.6l0 -67.8c0,-5.28 4.32,-9.6 9.6,-9.6zm41.97 66.39l-10.73 -18.65 -7.11 0 0 18.65 -8.34 0 0 -45.61 3.4 0 4.94 0 12.2 0c2.74,0 5.13,0.57 7.18,1.68 2.05,1.12 3.63,2.69 4.77,4.7 1.12,2.02 1.69,4.38 1.69,7.1 0,2.7 -0.57,5.06 -1.72,7.08 -1.13,2.04 -2.73,3.61 -4.76,4.72 -0.91,0.5 -1.88,0.89 -2.92,1.16l11.44 19.17 -10.04 0zm-17.84 -26.17l11.84 0c1.59,0 2.89,-0.56 3.87,-1.65 0.98,-1.1 1.46,-2.53 1.46,-4.31 0,-1.8 -0.48,-3.24 -1.45,-4.32 -0.96,-1.09 -2.26,-1.64 -3.88,-1.64l-11.84 0 0 11.92z"/>
 </g>
</svg>
